# xmcd CD database file
#
# Track frame offsets:
#	150
#	14710
#	34655
#	50562
#	68400
#	89202
#	105955
#	120150
#	138515
#	147755
#	167155
#	181437
#
# Disc length: 2699 seconds
#
# Revision: 2
# Processed by: cddbd v1.4PL0 Copyright (c) Steve Scherf et al.
# Submitted via: CDex 1.40Release
#
DISCID=a10a890c
DTITLE=Campfire Combo - Freestyle Americana
DYEAR=1900
DGENRE=Country
TTITLE0=The power of hate
TTITLE1=Maintainin'
TTITLE2=I'll think of your grave (When i pee)
TTITLE3=Early mornin' rain
TTITLE4=Mr. and Mrs.
TTITLE5=Thoughts of a murderer
TTITLE6=Enuff is enuff (Letter to little Clare)
TTITLE7=You will not fall
TTITLE8=Stop me (When i wanna go downtown)
TTITLE9=Baby Child (Evil TV)
TTITLE10=Shit, Shower and Shave
TTITLE11=The woman in my life
EXTD=ID3G: 2
EXTT0=
EXTT1=
EXTT2=
EXTT3=
EXTT4=
EXTT5=
EXTT6=
EXTT7=
EXTT8=
EXTT9=
EXTT10=
EXTT11=
PLAYORDER=
